<svg xmlns="http://www.w3.org/2000/svg" class="Z0g3x shURa" preserveAspectRatio="xMidYMid meet" viewBox="0 0 184 39" style="fill: currentcolor;"><defs><path id="a" d="M5.66 8.67h4.42l-.85 2.62H5.66v14.67H2.39V11.29H.08V8.67h2.31V5.53c0-2.1.84-3.6 2.1-4.5C6.2-.18 8.98-.11 10.73.74l-.68 2.62c-1.95-.75-4.38-.76-4.38 2.43v2.89zM35.4 8.3c4.74 0 7.16 3.62 7.18 8.53v1.15h-11.1c.19 1.67.54 3.04 1.6 4.06 1.8 1.74 4.53 2.13 8.15.34l.97 2.25c-2.7 1.8-7.78 2.35-10.75.05-1.96-1.4-3.23-4.14-3.23-7.45 0-5.57 3.1-8.93 7.18-8.93zm.04 2.55c2.48 0 3.81 2.4 3.81 4.7l-7.74.03c0-2.67 1.73-4.73 3.92-4.73zM19 8.71h2.75l.33 2.13c2.22-2.56 4.88-3.12 6.9-2.05l-1.1 2.88c-2.02-1.11-3.8-.1-5.65 1.78v12.5h-3.23V8.72zm-6.13 17.25h3.23V8.7h-3.23v17.25zM14.5 1.02a2.1 2.1 0 110 4.22 2.1 2.1 0 010-4.22z"/></defs><g fill="currentColor" fill-rule="evenodd"><g transform="translate(107.97)"><mask id="b" fill="#fff"><use xmlns:xlink="http://www.w3.org/1999/xlink" xlink:href="#a"/></mask><path fill="currentColor" d="M5.66 8.67h4.42l-.85 2.62H5.66v14.67H2.39V11.29H.08V8.67h2.31V5.53c0-2.1.84-3.6 2.1-4.5C6.2-.18 8.98-.11 10.73.74l-.68 2.62c-1.95-.75-4.38-.76-4.38 2.43v2.89zM35.4 8.3c4.74 0 7.16 3.62 7.18 8.53v1.15h-11.1c.19 1.67.54 3.04 1.6 4.06 1.8 1.74 4.53 2.13 8.15.34l.97 2.25c-2.7 1.8-7.78 2.35-10.75.05-1.96-1.4-3.23-4.14-3.23-7.45 0-5.57 3.1-8.93 7.18-8.93zm.04 2.55c2.48 0 3.81 2.4 3.81 4.7l-7.74.03c0-2.67 1.73-4.73 3.92-4.73zM19 8.71h2.75l.33 2.13c2.22-2.56 4.88-3.12 6.9-2.05l-1.1 2.88c-2.02-1.11-3.8-.1-5.65 1.78v12.5h-3.23V8.72zm-6.13 17.25h3.23V8.7h-3.23v17.25zM14.5 1.02a2.1 2.1 0 110 4.22 2.1 2.1 0 010-4.22z" mask="url(#b)"/></g><path fill="currentColor" d="M63.2 32.28c-5.92 4.37-14.5 6.69-21.9 6.69a39.6 39.6 0 01-26.73-10.2c-.55-.5-.06-1.18.6-.8a53.83 53.83 0 0026.76 7.1 53.2 53.2 0 0020.4-4.17c1-.43 1.85.66.87 1.38"/><path fill="currentColor" d="M65.66 29.47c-.76-.97-5-.46-6.91-.23-.58.07-.67-.44-.15-.8 3.4-2.39 8.94-1.7 9.59-.9.65.8-.17 6.37-3.35 9.02-.49.41-.95.2-.73-.35.71-1.78 2.31-5.77 1.55-6.74m-6.78-17.85v-2.3c0-.36.27-.6.59-.6h10.36c.34 0 .6.24.6.59v1.98c0 .33-.28.77-.78 1.46l-5.37 7.66c2-.05 4.1.25 5.91 1.27.41.23.52.57.55.9v2.47c0 .34-.37.73-.76.53a11.94 11.94 0 00-10.95.02c-.36.2-.74-.2-.74-.54v-2.34c0-.38.01-1.02.39-1.6l6.22-8.91h-5.42a.58.58 0 01-.6-.59m-37.8 14.45h-3.15a.6.6 0 01-.57-.54V9.35a.6.6 0 01.61-.58h2.94c.3.01.55.25.57.54v2.11h.06c.77-2.04 2.2-3 4.15-3 1.97 0 3.21.96 4.1 3 .76-2.04 2.5-3 4.35-3 1.32 0 2.77.55 3.65 1.78 1 1.36.8 3.33.8 5.07v10.21a.6.6 0 01-.62.58h-3.15a.59.59 0 01-.56-.58V16.9c0-.67.06-2.38-.1-3.02-.23-1.1-.93-1.4-1.85-1.4-.76 0-1.56.5-1.88 1.33-.32.81-.3 2.18-.3 3.1v8.57a.6.6 0 01-.6.59h-3.15a.59.59 0 01-.57-.58V16.9c0-1.8.3-4.46-1.94-4.46-2.27 0-2.18 2.58-2.18 4.46v8.57a.6.6 0 01-.6.59m58.3-14.34c-2.33 0-2.48 3.17-2.48 5.14 0 1.98-.03 6.2 2.44 6.2 2.45 0 2.56-3.4 2.56-5.48 0-1.36-.06-3-.47-4.3-.35-1.12-1.06-1.56-2.06-1.56zm-.04-3.3c4.68 0 7.21 4.01 7.21 9.12 0 4.94-2.8 8.86-7.2 8.86-4.6 0-7.1-4.02-7.1-9.03 0-5.04 2.53-8.95 7.1-8.95zm13.28 17.64H89.5a.59.59 0 01-.56-.58l-.01-16.2a.6.6 0 01.6-.52h2.93c.28.01.5.2.56.45v2.47h.06c.88-2.2 2.12-3.27 4.3-3.27 1.4 0 2.8.52 3.68 1.91.82 1.3.82 3.48.82 5.04v10.18a.6.6 0 01-.6.51H98.1a.6.6 0 01-.57-.5v-8.79c0-1.77.21-4.36-1.97-4.36-.76 0-1.47.51-1.82 1.3-.44.98-.5 1.97-.5 3.06v8.71a.6.6 0 01-.62.58m-38.83-.04c-.2.2-.5.2-.74.08-1.05-.87-1.24-1.27-1.81-2.1-1.73 1.76-2.96 2.29-5.2 2.29-2.65 0-4.72-1.64-4.72-4.91 0-2.56 1.39-4.3 3.36-5.16 1.71-.75 4.1-.89 5.93-1.1v-.4c0-.75.06-1.64-.38-2.29-.39-.58-1.12-.82-1.77-.82-1.2 0-2.27.62-2.54 1.9-.05.28-.26.56-.54.58l-3.06-.33c-.26-.06-.54-.27-.47-.66.7-3.71 4.05-4.83 7.05-4.83 1.54 0 3.54.4 4.75 1.57 1.53 1.43 1.39 3.34 1.39 5.43v4.9c0 1.49.61 2.13 1.19 2.93.2.29.24.63-.01.84-.65.54-1.8 1.53-2.42 2.1v-.02zm-3.18-7.68c0 1.23.03 2.25-.59 3.34-.5.89-1.3 1.44-2.18 1.44-1.21 0-1.92-.93-1.92-2.3 0-2.68 2.41-3.16 4.7-3.16v.68zm-38.15 7.68c-.21.2-.51.2-.75.08-1.04-.87-1.23-1.27-1.8-2.1-1.73 1.76-2.96 2.29-5.2 2.29-2.66 0-4.72-1.64-4.72-4.91 0-2.56 1.39-4.3 3.36-5.16 1.71-.75 4.1-.89 5.93-1.1v-.4c0-.75.06-1.64-.38-2.29-.39-.58-1.12-.82-1.77-.82-1.2 0-2.28.62-2.54 1.9-.05.28-.26.56-.54.58L1 13.76c-.26-.06-.55-.27-.47-.66.7-3.71 4.05-4.83 7.05-4.83 1.53 0 3.54.4 4.75 1.57 1.53 1.43 1.39 3.34 1.39 5.43v4.9c0 1.49.61 2.13 1.19 2.93.2.29.24.63-.01.84-.65.54-1.8 1.53-2.42 2.1l-.01-.02zm-3.18-7.68c0 1.23.03 2.25-.59 3.34-.5.89-1.3 1.44-2.18 1.44-1.21 0-1.92-.93-1.92-2.3 0-2.68 2.41-3.16 4.69-3.16v.68zm166.95 7.5l6.9-17.1h-3.4l-3 7.85a92.97 92.97 0 00-1.78 4.85 97.27 97.27 0 00-1.77-4.85l-3.03-7.85h-3.4l6.92 17.1h2.56"/><path fill="currentColor" d="M165.97 11.3h-4.56v14.53h-3.15V11.31h-4.98V8.74h13.52l-.83 2.57"/></g></svg>