<svg xmlns="http://www.w3.org/2000/svg" class="Z0g3x fDvxn" preserveAspectRatio="xMidYMid meet" viewBox="0 -5 60 30" style="fill: currentcolor;"><path fill="currentColor" fill-rule="evenodd" d="M45.72 22.26c-3.31 0-5.7-1.87-5.83-4.55h.89c.13 2.2 2.2 3.73 5 3.73 2.75 0 4.67-1.56 4.67-3.66 0-1.7-1.14-2.67-3.86-3.35l-1.91-.47c-3-.77-4.35-1.98-4.35-4 0-2.52 2.35-4.34 5.3-4.34 3.05 0 5.32 1.8 5.43 4.17h-.89c-.12-1.94-2.02-3.35-4.56-3.35-2.43 0-4.37 1.46-4.37 3.5 0 1.61 1.19 2.54 3.78 3.19l1.81.46c3.13.77 4.53 1.97 4.53 4.12 0 2.68-2.25 4.55-5.64 4.55zm-13.64 0c-4.41 0-7.2-3.21-7.2-8.33 0-5.08 2.8-8.31 7.2-8.31s7.2 3.23 7.2 8.31c0 5.12-2.78 8.33-7.2 8.33zM22.85 7a.69.69 0 110-1.38c.39 0 .7.3.7.7 0 .37-.31.68-.7.68zm-.44 15.03h.9V9.96h-.9v12.07zM13.35 5.34c.72.03 2.74.3 4.04 2.18a4.98 4.98 0 00-2.4 4.2c.03 3.32 2.92 4.44 2.96 4.46-.04.08-.47 1.59-1.53 3.13l-.25.37c-.85 1.2-1.76 2.31-3.13 2.34-1.48.03-1.95-.87-3.64-.87-1.69 0-2.22.84-3.62.9-1.43.05-2.54-1.46-3.47-2.8C.43 16.5-1.02 11.5.92 8.15A5.36 5.36 0 015.5 5.38c1.41-.03 2.77.96 3.64.96.87 0 2.5-1.18 4.22-1zm18.73 1.1l.24.01c3.7.12 6.06 3 6.06 7.48 0 4.59-2.45 7.5-6.3 7.5-3.83 0-6.3-2.91-6.3-7.5 0-4.58 2.46-7.48 6.3-7.48zM13.37 0a4.9 4.9 0 01-1.15 3.52 4.14 4.14 0 01-3.27 1.56 4.59 4.59 0 011.16-3.41A4.99 4.99 0 0113.37 0z"/></svg>