<svg xmlns="http://www.w3.org/2000/svg" class="Z0g3x shURa" preserveAspectRatio="xMidYMid meet" viewBox="0 0 91 20" style="fill: currentcolor;"><path fill="currentColor" fill-rule="evenodd" d="M546.512148,20.0291027 C546.512148,20.0784843 546.472764,20.1162327 546.426696,20.1162327 L535.047262,20.1162327 C534.954411,20.1162327 534.905956,20.0936786 534.892828,20.0597288 C534.879223,20.0058364 534.909537,19.9666636 534.976132,19.9215555 L546.30186,12.9862994 C546.381106,12.938105 546.512148,12.9454647 546.512148,13.1000194 L546.512148,20.0291027 Z M551.63855,20.1205061 L549.119627,20.1186068 L549.207227,20.1186068 C549.159488,20.1186068 549.119627,20.0796713 549.119627,20.0340884 L549.119627,11.917949 C549.119627,10.670828 548.25174,10.2620059 547.034169,11.0100886 L532.416631,19.9388865 C531.84162,20.2897802 531.648995,20.6860195 531.787914,20.9794598 C531.907738,21.2315905 532.22329,21.4075122 532.855825,21.4075122 L546.431947,21.4086992 C546.4699,21.4113108 546.500691,21.437426 546.509761,21.472088 L546.509761,22.611187 C546.509761,22.6593815 546.547952,22.6983169 546.593542,22.6983169 L549.034652,22.6983169 C549.080242,22.6983169 549.119627,22.6593815 549.119627,22.611187 L549.119627,21.4958292 C549.119627,21.4476347 549.159488,21.4086992 549.205079,21.4086992 L551.63855,21.4086992 C551.686528,21.4086992 551.726389,21.3695264 551.726389,21.3222816 L551.726389,20.2036 C551.726389,20.1594415 551.686528,20.1205061 551.63855,20.1205061 L551.63855,20.1205061 Z M509.396156,10.6356911 L495.052398,10.6356911 C495.005375,10.6356911 494.967185,10.6734395 494.967185,10.7192599 L494.967185,11.8393659 C494.967185,11.8861359 495.005375,11.9241217 495.05383,11.9241217 L508.534714,11.9241217 C509.675904,11.9241217 510.219646,12.7420033 510.219646,13.8782533 C510.219646,15.0137911 509.677813,15.8319101 508.534714,15.8319101 L497.870165,15.8319101 C496.214592,15.8319101 494.967185,17.2150678 494.967185,19.0514434 L494.968378,22.6135611 C494.968378,22.6615182 495.006808,22.6983169 495.05383,22.6983169 L497.484437,22.6983169 C497.531699,22.6983169 497.569889,22.6605685 497.569889,22.6135611 L497.569889,19.0514434 C497.569889,17.9151934 498.229158,17.1212903 499.173188,17.1212903 L509.396156,17.1212903 C511.69596,17.1212903 512.820679,15.7151038 512.820679,13.8808648 C512.820679,12.0454388 511.69596,10.6356911 509.396156,10.6356911 L509.396156,10.6356911 Z M532.901415,11.8381789 L532.901415,10.7178354 C532.901415,10.670828 532.863225,10.6330796 532.817634,10.6330796 L524.88898,10.6342667 C522.589893,10.6342667 521.464457,12.0447266 521.464457,13.8782533 L521.464457,19.4555173 C521.464457,20.5912925 520.922147,21.4086992 519.779525,21.4086992 L512.325392,21.4086992 C512.279802,21.4086992 512.24185,21.445498 512.24185,21.493455 L512.24185,22.6135611 C512.24185,22.6605685 512.279802,22.6983169 512.327302,22.6983169 L520.640012,22.6983169 C522.9391,22.6983169 524.066684,21.2923678 524.066684,19.4567043 L524.066684,13.8761166 C524.066684,12.7391544 524.609232,11.9217476 525.750661,11.9217476 L532.817634,11.9217476 C532.864418,11.9217476 532.901415,11.8835244 532.901415,11.8381789 L532.901415,11.8381789 Z M461.484572,20.2377872 C460.567276,20.9148839 460.903117,22.0874579 462.915057,22.6503598 C465.072123,23.3580826 467.263799,23.4969682 469.320136,23.163168 C469.453804,23.1415636 469.597735,23.1178225 469.728778,23.0962181 L469.728778,20.9476467 L467.673634,21.6895567 C466.915069,21.9606803 465.801329,22.0171841 465.185502,21.8165717 C464.570868,21.6176211 464.685202,21.2339646 465.443767,20.9640281 L469.728778,19.4379489 L469.728778,17.0389087 L463.774112,19.1437964 C463.774112,19.1437964 462.333363,19.6124461 461.484572,20.2377872 L461.484572,20.2377872 Z M484.590499,18.8304136 C482.851861,18.1737342 480.636316,17.9515173 478.826787,18.1464319 C477.019645,18.3470444 475.731421,18.8009746 475.731421,18.8009746 L475.47602,18.8869175 L475.47602,21.3683393 L479.928592,19.8073607 C480.687396,19.537899 481.800659,19.4804455 482.416725,19.6810579 C483.032552,19.8811956 482.915592,20.2631902 482.157027,20.5328893 L475.47602,22.9024905 L475.47602,25.2934587 L484.554933,22.0501843 C484.554933,22.0501843 485.773937,21.6036138 486.272805,20.9782727 C486.770479,20.3543561 486.550404,19.4464957 484.590499,18.8304136 L484.590499,18.8304136 Z M476.340087,10.7900084 L476.340087,16.9064332 C478.929902,18.1504679 480.967144,16.9052461 480.967144,13.6227989 C480.967144,10.2555958 479.774874,8.76109228 476.258215,7.55836713 C474.874037,7.09636493 472.301885,6.32572817 470.534365,6 L470.534365,24.2590581 L474.689527,25.570755 L474.689527,10.2555958 C474.689527,9.5393262 475.010091,9.0583311 475.529248,9.22665565 C476.207613,9.4142105 476.340087,10.0737388 476.340087,10.7900084 L476.340087,10.7900084 Z" transform="translate(-461 -6)"/></svg>