<svg xmlns="http://www.w3.org/2000/svg" class="Z0g3x shURa" preserveAspectRatio="xMidYMid meet" viewBox="0 0 108 36" style="fill: currentcolor;"><path fill="currentColor" d="M90.907 23.5c-9.01 3.897-20.946 7.38-34.245 9.696-29.787 5.19-55.127 2.556-56.595-5.88-.795-4.567 5.577-9.9 16.32-14.652-.54.392-.912.96-1.04 1.74-.08.5-.092.95.025 1.51.488 2.28 4.454 2.94 5.03 4.386.108.27.074.618.023.828-.093.372-.345.75-1.088.75-.7 0-1.124-.4-1.124-1.014v-1.08h-2.995l-.002.864c0 2.49 1.96 3.24 4.06 3.24 2.02 0 3.683-.69 3.947-2.55.135-.965.035-1.597-.012-1.835-.47-2.337-4.708-3.035-5.023-4.343a1.48 1.48 0 0 1-.012-.588c.077-.356.32-.75 1.02-.75.653 0 1.038.405 1.038 1.014v.69h2.785v-.784c0-2.433-2.183-2.812-3.765-2.812a6.81 6.81 0 0 0-1.54.16c8.935-3.79 20.633-7.167 33.63-9.43 29.79-5.19 55.124-2.558 56.59 5.875.782 4.48-5.33 9.695-15.697 14.378.6-.438 1.003-1.088 1.087-2.003.033-.372.038-.527.04-.736v-2.997h-3.96v1.63h1.147v1.62c0 .143-.005.298-.025.426-.052.298-.335.81-1.144.81-.807 0-1.088-.51-1.137-.81a2.35 2.35 0 0 1-.028-.425v-5.106c0-.18.013-.38.047-.527.06-.278.298-.814 1.112-.814.85 0 1.066.568 1.113.815.033.16.04.426.037.425v.625h2.815v-.373s.01-.38-.026-.735c-.205-2.09-1.938-2.76-3.92-2.76-1.98 0-3.673.673-3.92 2.76a8.212 8.212 0 0 0-.047.735l-.003 4.702c.004.21.01.364.04.736.19 2.03 1.95 2.756 3.93 2.756a6.46 6.46 0 0 0 1.513-.165zm-11.01-2.45h-.06l-2.567-8.766h-4.147v11.05h2.747l-.153-9.068h.06l2.757 9.068h3.975v-11.05h-2.765l.153 8.767zm-50.25-7.73h.063l1.487 10.13H34.2l-2.06-11.166h-4.967l-2.07 11.166h3.014l1.53-10.13zm13.02 7.5h-.058l-1.38-8.536h-4.556l-.247 11.166h2.797l.07-10.038h.06l1.868 10.038h2.833l1.867-10.038h.058l.073 10.038h2.79l-.24-11.166h-4.555l-1.38 8.536zm14.042-.54c.11.268.074.606.024.816-.09.37-.34.743-1.078.743-.69 0-1.112-.402-1.112-1l-.003-1.073H51.58l-.004.854c0 2.465 1.942 3.21 4.02 3.21 2 0 3.647-.682 3.907-2.526.136-.958.04-1.58-.01-1.814-.467-2.316-4.663-3.007-4.975-4.3a1.403 1.403 0 0 1-.01-.58c.08-.357.32-.74 1.01-.74.647 0 1.024.393 1.024 1v.68h2.763v-.775c0-2.406-2.166-2.784-3.732-2.784-1.962 0-3.572.65-3.863 2.454-.08.495-.09.934.026 1.49.48 2.26 4.408 2.915 4.976 4.346zm9.38 1.5c-.782 0-1.017-.537-1.078-.81a2.673 2.673 0 0 1-.026-.428V12.28h-2.82v8.01a9.53 9.53 0 0 0 .022.733c.196 2.084 1.845 2.76 3.9 2.76 2.05 0 3.7-.676 3.897-2.76.01-.106.03-.528.023-.733v-8.01h-2.823v8.262a2.32 2.32 0 0 1-.027.427c-.053.273-.295.81-1.07.81z"/></svg>