<svg xmlns="http://www.w3.org/2000/svg" class="Z0g3x ygdOH" preserveAspectRatio="xMidYMid meet" viewBox="0 0 68 12" style="fill: currentcolor;"><path fill="currentColor" d="M24.225 12c-2.463 0-4.75-.74-6.276-2.114C16.795 8.85 16.24 7.44 16.24 5.99c0-1.433.578-2.852 1.707-3.884C19.366.81 21.87 0 24.224 0c2.608 0 4.695.658 6.29 2.11C31.65 3.14 32.2 4.553 32.2 5.99c0 1.39-.582 2.872-1.684 3.896C29.03 11.268 26.696 12 24.226 12v-1.583c1.307 0 2.52-.452 3.367-1.297.84-.84 1.233-1.87 1.233-3.13 0-1.208-.423-2.337-1.233-3.138-.836-.825-2.078-1.29-3.368-1.29-1.293 0-2.536.46-3.372 1.29-.806.8-1.23 1.933-1.23 3.137 0 1.2.43 2.33 1.23 3.13.837.835 2.075 1.297 3.372 1.297V12zM6.22.006c-1.316 0-2.813.247-4.085.816C.96 1.347 0 2.196 0 3.604c0 1.268.803 2.01.78 1.99.343.315.894.852 2.333 1.168.643.14 2.018.357 3.387.5 1.36.144 2.697.28 3.242.42.433.11 1.16.26 1.16 1.078 0 .814-.766 1.063-.9 1.117-.132.052-1.05.475-2.703.475-1.22 0-2.687-.368-3.22-.56-.618-.22-1.264-.51-1.867-1.248-.15-.183-.386-.686-.386-1.185H.332v4.2h1.662v-.57c0-.063.08-.33.36-.203a13.09 13.09 0 0 0 2.43.788c.874.183 1.437.314 2.523.314 1.772 0 2.724-.29 3.382-.478.62-.178 1.385-.498 2.007-.995.337-.27 1.076-.958 1.076-2.21a3.095 3.095 0 0 0-.87-2.173 3.796 3.796 0 0 0-1.076-.733 7.898 7.898 0 0 0-1.323-.463c-.856-.21-2.793-.47-3.72-.568-.97-.102-2.655-.242-3.328-.45-.204-.064-.62-.263-.62-.747 0-.344.19-.636.566-.872.597-.373 1.802-.606 3.058-.606 1.486-.006 2.743.335 3.544.693.272.122.59.297.843.504.285.234.686.72.83 1.395h1.343V.53h-1.5v.424c0 .138-.14.316-.407.17C10.443.77 8.546.008 6.22.005zM39.066.67l7.31 6.613-.074-4.452c-.006-.583-.114-.827-.744-.827h-1.374V.67h6.25v1.333h-1.34c-.643 0-.683.206-.69.828l.112 8.51h-2.14l-8.42-7.534v5.346c.008.58.035.855.633.855h1.5v1.33H33.95v-1.33h1.435c.536 0 .515-.513.515-.886V2.88c0-.402-.057-.876-.898-.876h-1.165V.67h5.23zm18.51 9.334c.06 0 .32-.007.37-.023a.46.46 0 0 0 .29-.255c.018-.045.027-.245.027-.288V7.332c0-.05-.002-.073-.088-.185-.094-.124-3.83-4.366-4-4.553-.213-.232-.585-.59-1.152-.59h-1.3V.67h7.33V2h-.882c-.204 0-.34.195-.165.41 0 0 2.466 2.958 2.49 2.99.022.03.042.038.073.01.03-.03 2.53-2.972 2.548-2.995a.256.256 0 0 0-.218-.413h-.906V.672H68V2h-1.342c-.487 0-.685.09-1.052.506-.167.19-3.942 4.51-4.045 4.626-.053.062-.05.147-.05.198v2.104c0 .043.01.243.03.288a.458.458 0 0 0 .29.256c.05.015.306.023.365.023h1.373v1.332h-7.293v-1.332h1.3z"/></svg>