<svg xmlns="http://www.w3.org/2000/svg" class="Z0g3x KUqUl" preserveAspectRatio="xMidYMid meet" viewBox="0 0 41 10" style="fill: currentcolor;"><path fill="currentColor" fill-rule="evenodd" d="M1.205 0v3.097l.007.055c.007.054.02.133.04.221.03.142.085.307.147.428l.048.081.009.014L3.858 8.01l.006.015a.64.64 0 00.145.15c.135.1.375.23.859.246.483-.015.723-.147.858-.246a.653.653 0 00.132-.131l.008-.011.005-.008.007-.015L8.28 3.896l.009-.014c.08-.117.156-.332.194-.509.02-.088.033-.167.04-.221l.005-.031.002-.024V0h1.205v3.15l-.002.024c-.001.02-.016.209-.075.468-.05.212-.122.472-.262.735l-.092.159-2.36 4.038a1.71 1.71 0 01-.49.566c-.323.248-.827.465-1.511.49-.025.002-.05.002-.075.002l-.075-.001c-.685-.026-1.188-.243-1.51-.491-.26-.197-.4-.401-.468-.52l-.024-.046L.43 4.536a2.804 2.804 0 01-.354-.894 3.634 3.634 0 01-.073-.449l-.002-.019L0 3.15V0h1.205zm27.107 0v9.468h-1.205V0h1.205zM12.675 0v9.468h-1.204V0h1.204zM24.86.043v1.214l.001.011.002.077c0 .17-.02.488-.145.872a3.086 3.086 0 01-.471.905 3.58 3.58 0 01-1.133.962l-.113.06-.118.059-.351.138-5.332 2.085a1.641 1.641 0 00-.494.437l-.063.09-.005.01c-.042.087-.312.666-.313 1.15l.007.129h8.73v1.225H14.995V8.253l-.001-.011-.002-.076c0-.17.02-.49.145-.873a3.077 3.077 0 01.476-.91 3.585 3.585 0 011.136-.962l.222-.114.352-.137 4.844-1.895.226-.089c.702-.271.882-.742 1.053-1.052.17-.316.206-.613.211-.747V1.313l-.002-.02v-.025h-8.047V.043h9.252zm13.138 0a2.344 2.344 0 012.337 2.35v4.724a2.344 2.344 0 01-2.337 2.35h-5.072a2.344 2.344 0 01-2.337-2.35V2.394A2.345 2.345 0 0132.925.043h5.072zm0 1.211h-5.072a1.138 1.138 0 00-1.132 1.14v4.723a1.137 1.137 0 001.132 1.139h5.072c.625-.001 1.131-.51 1.132-1.14V2.395a1.138 1.138 0 00-1.132-1.14z"/></svg>