<svg xmlns="http://www.w3.org/2000/svg" class="Z0g3x fDvxn" preserveAspectRatio="xMidYMid meet" viewBox="0 0 68 21" style="fill: currentcolor;"><path fill="currentColor" fill-rule="evenodd" d="M372.542711,15.3590206 C372.542711,15.3590206 372.542711,15.3596409 372.542095,15.3596409 C372.17432,15.0445307 371.799152,14.7238379 371.395647,14.3957015 C370.992758,14.7213567 370.618823,15.0401886 370.251664,15.3534379 C370.251664,15.3528176 370.251664,15.3528176 370.251048,15.3521973 C367.57929,17.7254484 364.165821,20.8647647 364.198471,23.8006239 C366.066299,25.5876957 368.598217,26.6912016 371.392567,26.6912016 C374.181989,26.6912016 376.708362,25.5914174 378.574958,23.8117892 C378.605144,20.8734488 375.204612,17.7335123 372.542711,15.3590206 L372.542711,15.3590206 Z M374.312589,11.7985236 C374.267002,11.8704779 374.23312,11.9387104 374.190613,12.0094241 C375.544049,13.6631323 379.936403,19.0472985 379.543986,22.7510837 C380.943626,20.9888238 381.785134,18.7669248 381.785134,16.3459109 C381.785134,13.3715934 380.517327,10.6981192 378.499185,8.81055954 C376.858675,9.13001179 375.214469,10.5889471 374.312589,11.7985236 L374.312589,11.7985236 Z M371.399959,9.24538678 C372.627108,8.47808107 374.634777,7.48126598 376.825409,7.54639703 C376.829105,7.54825791 376.834034,7.54701732 376.838962,7.54639703 C375.253895,6.57191258 373.392843,6 371.392567,6 C369.392906,6 367.531855,6.57191258 365.946788,7.54639703 C365.949252,7.54701732 365.952332,7.54763762 365.95418,7.54639703 C368.153437,7.48126598 370.169731,8.47870137 371.399959,9.24538678 L371.399959,9.24538678 Z M368.598217,12.0057024 C368.555094,11.9349887 368.521212,11.8667561 368.475625,11.7948019 C367.572513,10.5889471 365.927691,9.13497415 364.284716,8.81242042 C362.267191,10.6993598 361,13.3722137 361,16.3459109 C361,18.7576204 361.83658,20.9720758 363.226979,22.7312342 C362.838874,19.0305505 367.240468,13.6569294 368.598217,12.0057024 L368.598217,12.0057024 Z M395.089714,9.73045797 L393.410394,9.73045797 L389.757902,14.7275596 L386.107875,9.73045797 L384.433483,9.73045797 L388.911466,15.8546368 L384.00164,22.5929083 L385.683425,22.5929083 L389.75975,17.0164505 L393.839156,22.5929083 L395.519093,22.5929083 L390.608035,15.8546368 L395.089714,9.73045797 Z M412.708411,21.5185563 C409.975049,21.5185563 408.059786,19.3121647 408.059786,16.1536193 C408.059786,12.9975551 409.975049,10.7924041 412.708411,10.7924041 C415.438077,10.7924041 417.343483,12.9975551 417.343483,16.1536193 C417.343483,19.3121647 415.438077,21.5185563 412.708411,21.5185563 L412.708411,21.5185563 Z M412.708411,9.43271606 C409.120604,9.43271606 406.612711,12.1967534 406.612711,16.1536193 C406.612711,20.1166881 409.120604,22.8788646 412.708411,22.8788646 C416.29437,22.8788646 418.794254,20.1166881 418.794254,16.1536193 C418.794254,12.1967534 416.29437,9.43271606 412.708411,9.43271606 L412.708411,9.43271606 Z M401.404723,21.2518291 L397.651202,21.2518291 L397.651202,16.5685971 L401.404723,16.5685971 C402.827772,16.5685971 404.530502,16.9643457 404.530502,18.8103455 C404.530502,20.9329972 402.572732,21.2518291 401.404723,21.2518291 L401.404723,21.2518291 Z M397.651202,11.0721574 L401.404723,11.0721574 C402.421187,11.0721574 404.122068,11.3270989 404.122068,13.1166519 C404.122068,14.4695166 403.130863,15.275901 401.404723,15.275901 L397.651202,15.275901 L397.651202,11.0721574 Z M404.85885,16.3415689 C404.592722,16.1126798 404.303184,15.9358955 404.02227,15.8050132 C404.949408,15.2982316 405.557438,14.3404951 405.557438,13.2295457 C405.557438,12.4064134 405.256195,9.73045797 401.404723,9.73045797 L396.217064,9.73045797 L396.217064,15.275901 L394.488461,15.275901 C394.263607,15.5699211 393.755375,16.2764378 393.560707,16.5667362 L396.217064,16.5667362 L396.217064,22.5929083 L401.404723,22.5935286 C404.214474,22.5935286 405.960943,21.1563036 405.960943,18.8382588 C405.960943,17.825316 405.580847,16.9643457 404.85885,16.3415689 L404.85885,16.3415689 Z M424.091568,15.8546368 L428.570166,9.72983767 L426.891462,9.72983767 L423.242051,14.7256987 L419.589559,9.72983767 L417.910239,9.72983767 L422.390686,15.8546368 L417.483324,22.5941489 L419.164493,22.5941489 L423.242051,17.0158302 L427.322689,22.5941489 L429.000777,22.5941489 L424.091568,15.8546368 Z" transform="translate(-361 -6)"/></svg>